<?xml version="1.0" encoding="utf-8"?>
<!-- Generator: Adobe Illustrator 14.0.0, SVG Export Plug-In . SVG Version: 6.00 Build 43363)  -->
<!DOCTYPE svg PUBLIC "-//W3C//DTD SVG 1.1//EN" "http://www.w3.org/Graphics/SVG/1.1/DTD/svg11.dtd">
<svg version="1.1" id="Capa_1" xmlns="http://www.w3.org/2000/svg" xmlns:xlink="http://www.w3.org/1999/xlink" x="0px" y="0px"
	 width="841.89px" height="595.28px" viewBox="0 0 841.89 595.28" enable-background="new 0 0 841.89 595.28" xml:space="preserve">
<g>
	<g>
		<path fill="#0098D4" d="M364.497,500.234c-173.138,17.161-95.862-14.297,8.335-74.317c22.222-12.802,29.36-29.293,41.316-44
			c5.524-6.795,18.123-4.767,14.585-12.146c-5.423-11.354,7.425-11.411,12.513-26.445c14.424-42.679,25.682-99.734,52.466-148.919
			c2.413-4.455,10.821-11.555,12.23-15.527c2.519-7.042-12.536-7.332-12.964-12.389c-0.787-9.273,4.575-23.569-4.629-23.823
			c-5.687-0.147,4.154,5.725-4.182,10.002c-33.336,17.157-59.209,27.36-40.281-4.291c22.237-37.146,27.851-51.924,62.326-46.852
			c57.499,8.45,90.229,84.187,114.915,143.68v-79.296c0-52.339-42.428-94.767-94.771-94.767H269.803
			c-52.34,0-94.778,42.428-94.778,94.767v256.565c0,52.341,42.438,94.77,94.778,94.77h256.554c29.983,0,56.694-13.936,74.061-35.669
			C462.053,463.552,465.91,490.18,364.497,500.234z"/>
	</g>
	<path fill="#0098D4" d="M616.869,414.566c-2.873,8.453-7.063,15.747-12.57,21.877c-5.511,6.132-12.301,10.942-20.368,14.437
		c-8.071,3.49-17.307,5.237-27.701,5.237c-4.346,0-8.729-0.315-13.151-0.933c-4.424-0.622-8.73-1.553-12.92-2.794
		c-0.312-0.156-0.621-0.387-0.932-0.698c-0.312-0.312-0.622-0.547-0.93-0.697c0-0.621,0.152-2.445,0.465-5.472
		c0.309-3.025,0.658-6.247,1.047-9.659c0.386-3.415,0.775-6.598,1.164-9.544c0.386-2.949,0.582-4.812,0.582-5.587
		c4.19,1.085,8.416,2.055,12.688,2.909c4.266,0.851,8.572,1.279,12.918,1.279c9.621,0,16.798-3.026,21.533-9.078
		c4.732-6.051,7.099-13.501,7.099-22.347c0-1.549-0.079-2.713-0.232-3.492c-3.725,4.191-8.146,7.373-13.269,9.547
		c-5.121,2.171-10.554,3.258-16.294,3.258c-8.846,0-16.801-1.712-23.86-5.121c-7.064-3.412-13.075-8.033-18.041-13.852
		c-4.967-5.819-8.769-12.57-11.406-20.252c-2.64-7.681-3.957-15.712-3.957-24.092c0-8.381,1.317-16.563,3.957-24.559
		c2.638-7.991,6.439-15.092,11.406-21.299c4.966-6.206,11.019-11.211,18.157-15.016c7.136-3.801,15.283-5.702,24.441-5.702
		c6.519,0,12.647,1.36,18.392,4.073c5.739,2.717,10.474,6.79,14.199,12.221c0.466-4.5,1.745-8.415,3.84-11.753
		c2.096-3.337,5.704-5.007,10.825-5.007c5.74,0,10.046,1.712,12.919,5.123c2.87,3.416,4.307,7.837,4.307,13.269v96.139
		C621.176,396.912,619.739,406.103,616.869,414.566z M586.607,329.366c-0.389-3.025-1.088-5.896-2.095-8.612
		c-1.011-2.713-2.443-5.237-4.307-7.565c-1.861-2.328-4.189-4.268-6.983-5.82c-3.571-1.862-7.373-2.793-11.406-2.793
		c-4.502,0-8.46,0.931-11.872,2.793c-3.415,1.862-6.249,4.309-8.497,7.334c-2.251,3.025-3.92,6.481-5.004,10.358
		c-1.088,3.881-1.63,7.838-1.63,11.871c0,4.189,0.503,8.304,1.515,12.338c1.006,4.038,2.596,7.645,4.771,10.823
		c2.172,3.185,4.965,5.745,8.38,7.682c3.41,1.942,7.449,2.909,12.105,2.909c4.342,0,8.105-0.967,11.288-2.909
		c3.18-1.937,5.82-4.42,7.915-7.447c2.096-3.027,3.685-6.479,4.771-10.359c1.084-3.879,1.629-7.681,1.629-11.405
		C587.188,335.459,586.994,332.392,586.607,329.366z"/>
</g>
</svg>
